<?xml version="1.0" encoding="UTF-8"?>
<svg xmlns="http://www.w3.org/2000/svg" xmlns:xlink="http://www.w3.org/1999/xlink" width="180px" height="180px" viewBox="0 0 180 180" version="1.1">
<g id="surface1">
<path style=" stroke:none;fill-rule:nonzero;fill:rgb(0%,0%,0%);fill-opacity:1;" d="M 90 90 L 112.5 90 L 112.5 112.5 L 90 112.5 Z M 90 90 "/>
<path style=" stroke:none;fill-rule:nonzero;fill:rgb(0%,0%,0%);fill-opacity:1;" d="M 67.5 90 L 67.5 67.5 L 90 67.5 L 90 90 Z M 67.5 90 "/>
<path style=" stroke:none;fill-rule:nonzero;fill:rgb(0%,0%,0%);fill-opacity:1;" d="M 67.5 90 L 67.5 112.5 L 45 112.5 L 45 90 Z M 67.5 90 "/>
<path style=" stroke:none;fill-rule:nonzero;fill:rgb(0%,0%,0%);fill-opacity:1;" d="M 135 45 L 112.5 45 L 112.5 67.5 L 135 67.5 Z M 135 45 "/>
<path style=" stroke:none;fill-rule:evenodd;fill:rgb(0%,0%,0%);fill-opacity:1;" d="M 0 0 L 0 180 L 180 180 L 180 0 Z M 157.5 157.5 L 112.5 157.5 L 112.5 135 L 135 135 L 135 112.5 L 157.5 112.5 Z M 112.5 112.5 L 135 112.5 L 135 90 L 157.5 90 L 157.5 22.5 L 22.5 22.5 L 22.5 112.5 L 45 112.5 L 45 135 L 22.5 135 L 22.5 157.5 L 90 157.5 L 90 135 L 112.5 135 Z M 112.5 112.5 "/>
</g>
</svg>
